<?xml version="1.0" encoding="UTF-8" standalone="no"?>
<!-- Created with Inkscape (http://www.inkscape.org/) -->

<svg
   width="488.01938"
   height="445.69421"
   viewBox="0 0 129.12179 117.92326"
   version="1.1"
   id="svg1"
   inkscape:version="1.3.2 (091e20e, 2023-11-25, custom)"
   sodipodi:docname="e-market.svg"
   xmlns:inkscape="http://www.inkscape.org/namespaces/inkscape"
   xmlns:sodipodi="http://sodipodi.sourceforge.net/DTD/sodipodi-0.dtd"
   xmlns:xlink="http://www.w3.org/1999/xlink"
   xmlns="http://www.w3.org/2000/svg"
   xmlns:svg="http://www.w3.org/2000/svg">
  <sodipodi:namedview
     id="namedview1"
     pagecolor="#ffffff"
     bordercolor="#000000"
     borderopacity="0.25"
     inkscape:showpageshadow="2"
     inkscape:pageopacity="0.0"
     inkscape:pagecheckerboard="0"
     inkscape:deskcolor="#d1d1d1"
     inkscape:document-units="mm"
     inkscape:zoom="0.49575348"
     inkscape:cx="327.78388"
     inkscape:cy="305.59544"
     inkscape:window-width="1920"
     inkscape:window-height="1001"
     inkscape:window-x="-9"
     inkscape:window-y="-9"
     inkscape:window-maximized="1"
     inkscape:current-layer="layer1" />
  <defs
     id="defs1">
    <linearGradient
       id="linearGradient99"
       inkscape:collect="always">
      <stop
         style="stop-color:#aa0000;stop-opacity:1"
         offset="0"
         id="stop99" />
      <stop
         style="stop-color:#ffdd55;stop-opacity:1"
         offset="1"
         id="stop100" />
    </linearGradient>
    <linearGradient
       inkscape:collect="always"
       xlink:href="#linearGradient99"
       id="linearGradient100"
       x1="27.21867"
       y1="168.11531"
       x2="175.5871"
       y2="28.819767"
       gradientUnits="userSpaceOnUse"
       gradientTransform="matrix(0.84555828,0,0,0.84555828,-19.517071,-16.367229)" />
  </defs>
  <g
     inkscape:label="Слой 1"
     inkscape:groupmode="layer"
     id="layer1"
     transform="translate(-1.917409,-7.9800612)">
    <path
       id="path72"
       style="fill:url(#linearGradient100);fill-opacity:1;stroke:none;stroke-width:0.22372"
       d="m 55.235298,7.980129 c -0.67818,0.00161 -1.35565,0.040587 -2.02616,0.1271542 -1.213486,0.1566591 -2.391155,0.5441768 -3.545012,0.9512489 -3.771041,1.3304069 -5.926696,2.4935369 -9.270422,4.7973219 -1.689301,1.163909 -3.260836,2.49005 -4.891267,3.735087 -5.708927,5.01179 -10.752001,10.783745 -14.82324,17.205078 -0.901338,1.42163 -1.79081,2.856529 -2.55225,4.357745 -0.851484,1.678745 -1.519143,3.444266 -2.278717,5.166549 -0.460581,1.846602 -1.116075,3.655588 -1.38165,5.540144 -0.685116,4.861716 -0.146823,10.056599 2.5824,14.208445 -0.118481,0.152341 -0.21887,0.27165 -0.342135,0.432147 -0.943349,1.228281 -1.806997,2.516041 -2.710428,3.773975 -2.917777,4.51644 -5.7892265,9.120284 -7.932469,14.067308 -1.5564707,3.592617 -1.580466,4.0526 -2.7296541,7.813618 -0.345298,1.53068 -0.7995971,3.040702 -1.0360186,4.591946 -0.9598896,6.298224 -0.1795602,13.062244 3.1906407,18.582794 0.9182576,1.50414 2.1538567,2.7898 3.2308401,4.18472 3.7976569,3.1728 4.4486629,4.22877 9.1782259,6.07803 1.804399,0.70552 3.694089,1.20889 5.600008,1.55687 6.08566,1.11111 10.116655,0.94495 16.416375,-0.18528 2.410803,-0.43251 4.710327,-1.34468 7.065551,-2.01697 1.994303,-0.88036 4.029164,-1.67368 5.982783,-2.64095 1.732752,-0.85793 3.378327,-1.88227 5.064294,-2.82885 9.033317,-5.07171 0.793091,-0.38686 9.166433,-5.40906 2.60043,-1.5597 5.264733,-3.0316 7.908871,-4.51548 3.140741,-1.72933 6.338262,-3.34748 9.607749,-4.81873 2.078223,-0.93519 3.378194,-1.51831 5.526165,-2.22192 0.822686,-0.26948 1.664558,-0.47682 2.496756,-0.715288 0.934722,-0.07804 1.866114,-0.217512 2.803939,-0.234212 2.469868,-0.04397 3.51836,0.172858 5.845574,0.352184 3.76537,0.290136 7.529,0.567396 11.30096,0.751566 2.90147,-0.0413 4.63263,-0.0248 7.30543,-0.31112 0.0689,-0.0433 0.16061,-0.0753 0.27747,-0.0865 0.96825,-0.0924 1.92198,-0.273897 2.86335,-0.514289 1.02057,-0.277521 2.0321,-0.58659 3.03902,-0.909737 0.9617,-0.277215 1.88836,-0.645719 2.79651,-1.063112 0.63032,-0.293568 1.24772,-0.61237 1.85882,-0.942949 -0.2667,-0.66553 -0.68395,-1.517185 -0.78347,-1.472532 -4.34898,0.288404 -1.84609,0.08058 -6.46911,0.57066 -1.21301,0.128584 -2.42619,0.257827 -3.63983,0.380154 -0.84908,0.08559 -1.69523,0.220606 -2.54831,0.243817 -1.12094,0.03052 -2.24224,-0.05547 -3.36324,-0.08304 -7.65834,-0.681858 -15.43442,-1.874188 -23.052402,-0.197506 -0.937116,0.222019 -1.883836,0.406781 -2.811372,0.66592 -3.138249,0.876768 -6.146805,2.131517 -9.157254,3.359744 -1.129903,0.46099 -2.267154,0.90404 -3.391637,1.37815 -1.255399,0.52929 -2.498193,1.08764 -3.747319,1.63159 -1.359065,0.65103 -2.732523,1.27298 -4.077223,1.95319 -2.948383,1.49138 -5.839939,3.09281 -8.759187,4.64045 -1.574919,0.83494 -3.111595,1.7454 -4.721292,2.51117 -4.46601,2.12464 -5.850198,2.37808 -10.672607,3.92036 -2.150638,0.524 -4.297664,1.06385 -6.452068,1.57216 -3.550512,0.8377 -7.386066,1.81923 -11.061935,1.74388 -2.774976,-0.0569 -6.655756,-1.31289 -9.084283,-2.63395 -1.310764,-0.71303 -2.441962,-1.71555 -3.662987,-2.57323 -2.351646,-2.58542 -3.6435286,-3.55922 -5.0341516,-6.81693 -1.1536416,-2.70254 -1.2540136,-4.91314 -1.2077412,-7.807492 0.052128,-3.260709 0.4299832,-5.296712 0.871724,-8.513621 0.9271716,-3.204471 1.1197407,-4.217323 2.4063078,-7.28927 0.836393,-1.997073 2.245163,-4.796801 3.389017,-6.637336 0.807154,-1.298752 3.800602,-5.405883 4.621666,-6.545577 0.221358,-0.303868 1.215497,-1.658308 2.152,-2.943317 2.035687,1.540028 3.926027,1.826428 7.28403,3.002743 2.742868,0.0059 5.509312,0.376324 8.228725,0.01834 2.526148,-0.332541 4.988669,-1.133479 7.358311,-2.06985 7.412254,-2.928994 14.313312,-8.096133 18.285668,-15.123422 1.049431,-1.856492 1.490043,-3.9968 2.235022,-5.995015 -0.06993,-3.611419 0.684412,-5.925771 -2.145883,-8.689712 -0.942265,-0.920167 -2.344784,-1.200379 -3.517049,-1.800687 -0.160419,-0.1173 -1.8191,2.151368 -1.658681,2.268666 0.666536,0.293415 1.485122,0.364498 1.999509,0.880026 1.639858,1.643486 0.521405,3.462146 0.09176,5.305063 -0.890484,1.457046 -1.639614,3.010752 -2.671542,4.371291 -2.345891,3.09294 -6.710477,7.474928 -9.838901,9.674607 -3.656827,2.571214 -7.764348,4.184056 -11.992212,5.501257 -1.343216,0.418484 -2.739453,0.643275 -4.109119,0.964791 -1.524203,-0.161325 -3.122359,0.0115 -4.572727,-0.484142 -0.862679,-0.294804 -1.656765,-0.802396 -2.357369,-1.407431 0.130286,-0.176051 0.499613,-0.686498 0.55799,-0.762923 0.851037,-1.114113 1.685752,-2.245135 2.622164,-3.288517 0.85737,-0.955311 1.81324,-1.818121 2.749317,-2.696446 2.509272,-2.354462 3.179575,-2.836386 5.801879,-4.995262 0.857737,-0.633889 1.69301,-1.299342 2.573224,-1.901626 1.729043,-1.183087 3.105071,-2.222243 5.132467,-1.143509 0.06211,0.08682 1.28995,-0.791894 1.227842,-0.878716 -0.387985,-0.532919 -0.574875,-0.885134 -1.237892,-1.223471 -0.822954,-0.419953 -1.715005,-0.596213 -2.621727,-0.606493 -1.511202,-0.01713 -3.063142,0.426648 -4.404936,0.971349 -1.153387,0.468218 -2.219422,1.127954 -3.329155,1.691888 -3.234481,2.220523 -3.710616,2.369281 -6.603692,5.081779 -0.99746,0.935204 -1.920498,1.947093 -2.861176,2.939391 -0.961854,1.014636 -1.691393,1.811495 -2.436895,2.63571 -1.072435,-2.912188 -1.080228,-6.319381 -0.690388,-9.223224 0.224853,-1.674912 0.772773,-3.290245 1.159239,-4.935398 0.562397,-1.560912 0.971505,-3.185947 1.68708,-4.68284 1.30652,-2.733072 3.559309,-5.482621 5.485962,-7.769048 3.61941,-4.295273 7.572887,-8.298121 11.691152,-12.11325 3.819877,-3.42502 4.193858,-3.960689 8.225661,-6.844016 1.138156,-0.813944 2.262689,-1.665616 3.503504,-2.312362 0.914962,-0.476898 1.944564,-0.69013 2.917108,-1.034708 0.604363,-0.214132 1.175334,-0.577937 1.813359,-0.641449 0.68311,-0.068 1.36211,0.171876 2.043199,0.257803 1.125929,0.335484 2.121708,0.523021 3.101938,1.201188 0.354222,0.245067 0.626635,0.591256 0.924593,0.90231 0.746333,0.779131 1.387748,1.653712 2.170794,2.398442 0.03323,0.07427 1.083656,-0.395462 1.050434,-0.469725 -0.09754,-0.279894 -0.169356,-0.570317 -0.292756,-0.83982 C 64.412007,12.424994 62.97444,10.629938 61.497291,9.670252 60.89615,9.2796963 60.216778,9.0255612 59.576437,8.7032716 58.806142,8.4945514 58.059978,8.1515304 57.265382,8.0771162 56.59225,8.0140799 55.91347,7.9785258 55.235298,7.9801121 Z m 38.817273,1.0936966 c -0.569383,0.083584 -1.306473,-0.1613975 -1.708054,0.2508121 -0.05463,0.056069 -0.09962,0.1178835 -0.142011,0.1813359 -0.08671,4.177e-4 -0.174777,0.00397 -0.257363,-0.00567 -0.0597,0.4600632 -0.176882,0.9164234 -0.179156,1.3803394 -5.84e-4,0.120251 0.01285,0.254375 0.0153,0.377965 -0.0088,0.05612 -0.01319,0.117174 -0.02401,0.171723 -0.256188,1.292478 -0.466334,2.595993 -0.604312,3.906372 -0.395866,3.759491 -0.535992,8.33685 -0.45399,12.066058 0.05158,2.345927 0.245618,4.686438 0.368351,7.029722 0.284226,2.44108 0.446692,4.899593 0.852931,7.323355 0.370871,2.212703 0.910506,4.395638 1.475162,6.566988 0.430787,1.656541 0.861852,3.128391 1.323535,4.563114 -0.31306,2.431588 -0.703166,4.853908 -1.140455,7.260433 -0.355228,1.634224 -0.666224,3.278661 -1.065734,4.902633 -0.618999,2.516245 -1.086643,4.617279 -2.488452,6.783709 -0.388162,0.599881 -0.945478,1.071964 -1.438887,1.588769 -0.217807,0.22814 -0.37782,0.632005 -0.693011,0.644071 -0.508391,0.01944 -0.945553,-0.375775 -1.418355,-0.563674 -0.49132,-0.66584 -1.115926,-1.251236 -1.473845,-1.997315 C 84.030082,69.482338 82.946751,64.643078 82.520498,62.765919 81.035511,56.226227 79.984736,49.610847 78.86887,43.001163 78.322901,39.850621 77.283363,34.132166 76.878544,30.81101 c -0.522132,-4.283568 -0.45886,-8.607154 -0.414671,-12.912439 0.01843,-0.870955 0.03593,-2.717876 0.129776,-3.65119 0.04321,-0.42953 0.145876,-0.851449 0.205802,-1.278965 0.114809,-0.819052 0.16862,-1.648307 0.343888,-2.458743 0.01793,-0.05503 -0.760292,-0.308461 -0.778218,-0.253434 -1.34393,2.250125 -1.829585,4.872021 -2.355624,7.40463 -0.228208,1.485085 -0.607509,3.879858 -0.774717,5.312054 -0.129667,1.110541 -0.196839,2.227474 -0.323782,3.338331 -0.425721,3.725416 -0.706751,4.884445 -0.80662,7.753317 -0.139484,0.03186 -0.230652,0.06807 -0.230271,0.110114 -0.154458,1.731866 -0.376146,3.458847 -0.463612,5.195387 -0.17207,3.416092 -0.0067,6.842825 -0.152935,10.260125 -0.230263,5.384339 -0.840891,10.754775 -2.141512,15.993843 -1.346704,4.451135 -1.967716,7.215037 -4.125722,11.402757 -2.962549,5.748951 -7.631087,11.393027 -12.691339,15.408319 -1.758254,1.395164 -3.739219,2.48426 -5.608746,3.726351 -1.809443,0.853244 -3.552051,1.865496 -5.428284,2.559674 -3.533751,1.307429 -7.972369,1.163048 -11.156318,-1.022035 -2.233859,-1.533057 -2.273393,-2.670374 -3.184524,-5.020604 -0.08956,-0.994679 -0.275654,-1.985285 -0.268726,-2.983965 0.0067,-0.96928 0.186149,-1.930316 0.309362,-2.891759 0.111481,-0.869893 0.233228,-1.739144 0.394571,-2.601191 0.311944,-1.666696 0.851174,-3.287623 1.09326,-4.969041 0.04258,-0.115494 -1.590755,-0.717625 -1.633336,-0.602131 -1.568301,2.242869 -2.598391,4.867364 -3.237395,7.5213 -0.245527,1.019727 -0.48922,2.049102 -0.568914,3.094947 -0.09102,1.194419 0.03972,2.395356 0.05942,3.593071 0.997487,3.275465 0.948539,4.556621 3.582589,7.085221 4.259686,4.089156 10.708388,5.085336 16.346899,4.230146 2.504436,-0.37984 4.838878,-1.50119 7.258248,-2.25162 2.26766,-1.35451 4.680732,-2.490597 6.80294,-4.063242 4.375949,-3.242733 7.759535,-7.037428 10.719368,-11.580596 2.29602,-3.524286 4.677915,-8.792799 6.00069,-12.791402 0.688707,-2.081909 1.105982,-4.244035 1.659121,-6.365987 0.26093,-1.330469 0.469513,-2.667677 0.655865,-4.007308 0.09141,0.302206 0.179681,0.605454 0.277031,0.905807 0.956267,2.950459 2.426625,6.641379 4.41586,9.15157 0.766126,0.966769 1.812751,1.673648 2.719163,2.510302 0.936405,0.330031 1.81899,0.917499 2.809184,0.99014 1.225586,0.08991 2.509617,-0.05935 3.650318,-0.516483 1.039724,-0.416666 1.901855,-1.2202 2.683776,-2.02222 1.893865,-1.942544 3.564265,-5.112509 4.55219,-7.530913 0.587324,-1.437745 1.011043,-2.935987 1.474721,-4.419353 0.988948,1.78509 1.79971,2.82065 3.44801,5.169608 2.00002,2.355758 2.84531,3.729376 5.50868,5.384151 3.47094,2.156511 7.61816,2.782114 11.62168,2.007363 1.09013,-0.210958 2.06498,-0.816521 3.09756,-1.224783 0.19141,-0.09824 -1.19766,-2.805165 -1.38907,-2.706928 -0.95122,0.130758 -1.90146,0.269615 -2.85376,0.392381 -0.64531,0.08321 -1.28847,0.247775 -1.93876,0.225469 -1.7104,-0.05868 -4.11854,-0.559963 -5.61704,-1.410924 -2.16804,-1.231175 -2.99783,-2.693474 -4.50675,-4.610303 -0.56422,-1.09649 -1.1822,-2.166906 -1.69277,-3.289391 -1.54066,-3.387217 -2.78706,-7.062937 -3.71978,-10.744271 0.19323,-2.243093 0.28779,-4.499357 0.31635,-6.769297 0.0499,-3.963439 -0.009,-7.064227 -0.43346,-10.999889 -0.18007,-1.670359 -0.48581,-3.324594 -0.72884,-4.986959 -1.400312,-6.308115 -0.516339,-2.474548 -1.994257,-8.559937 -0.32313,-1.33052 -0.608946,-2.670478 -0.962177,-3.993326 -0.478849,-1.793288 -1.125794,-4.04505 -1.97328,-5.760807 -0.214932,-0.4351149 -0.53813,-0.808138 -0.80706,-1.2121111 z M 131.02284,97.506826 c -0.17204,0.09371 -0.34611,0.183723 -0.51954,0.274849 0.1773,-0.06629 0.35597,-0.128509 0.53397,-0.192703 0.009,-0.0034 -0.0165,-0.06696 -0.0145,-0.08219 z" />
  </g>
</svg>
